#!OML:ASF H:\Pregnant\Project 1\Capture day 1\Session 1\femalepreg.ASF
:FULLY-SPECIFIED
:DEGREES
841
root 11.4356 15.0666 5.35152 14.4927 32.4578 -2.63999
lowerback -8.39365 -1.15759 -4.64579
upperback -4.81302 -1.18597 4.67438
thorax -0.116936 -0.425652 7.42934
lowerneck -15.7705 -12.1717 -11.3786
upperneck 12.6868 -14.3749 2.87428
head 7.4806 -7.19749 1.01416
rclavicle -1.04859e-014 1.59028e-014
rhumerus -22.4724 5.21279 -85.9062
rradius 28.9287
rwrist 19.735
rhand -34.9079 -16.6688
rfingers 7.12502
rthumb -8.05587 -46.4953
lclavicle -1.04859e-014 1.59028e-014
lhumerus -44.6241 -8.92651 72.5278
lradius 100.865
lwrist 46.5784
lhand -29.7501 -6.07256
lfingers 7.12502
lthumb -3.07615 23.885
rfemur -56.949 19.2679 -1.57074
rtibia 40.9064
rfoot -10.3026 0.151746
rtoes -28.2826
lfemur -36.6652 -24.2879 -18.5769
ltibia 47.4848
lfoot -13.9603 -24.6641
ltoes 31.2462
842
root 11.434 15.0514 5.44039 14.3293 33.0639 -2.43817
lowerback -8.52175 -1.29223 -4.78189
upperback -4.67269 -1.35546 4.60464
thorax 0.128932 -0.522852 7.41527
lowerneck -15.7774 -12.281 -11.411
upperneck 12.9628 -14.5631 3.08627
head 7.6055 -7.27113 1.04954
rclavicle 1.30527e-013 -3.57812e-014
rhumerus -23.1817 6.88519 -86.4669
rradius 29.1461
rwrist 19.4236
rhand -34.9413 -14.9731
rfingers 7.12502
rthumb -8.08811 -44.7983
lclavicle 1.30527e-013 -3.57812e-014
lhumerus -45.676 -8.33749 71.8229
lradius 100.273
lwrist 46.8519
lhand -30.1108 -6.14998
lfingers 7.12502
lthumb -3.42448 23.8023
rfemur -56.402 19.2622 -1.36677
rtibia 40.7088
rfoot -9.06938 1.35794
rtoes -27.566
lfemur -35.9833 -24.7413 -18.7576
ltibia 47.4228
lfoot -14.3201 -24.6323
ltoes 31.1587
843
root 11.434 15.0344 5.52863 14.1697 33.6567 -2.1646
lowerback -8.61574 -1.42616 -4.93726
upperback -4.54442 -1.52224 4.47987
thorax 0.342379 -0.617812 7.35293
lowerneck -15.803 -12.3849 -11.3962
upperneck 13.2933 -14.7506 3.26669
head 7.7463 -7.34429 1.06567
rclavicle 5.03919e-014 -3.33958e-014
rhumerus -23.9232 8.64359 -87.0757
rradius 29.4821
rwrist 18.9027
rhand -35.0738 -13.5291
rfingers 7.12502
rthumb -8.21595 -43.3494
lclavicle 5.03919e-014 -3.33958e-014
lhumerus -46.6761 -7.889 71.0978
lradius 99.6687
lwrist 47.087
lhand -30.5564 -6.23941
lfingers 7.12502
lthumb -3.85479 23.7055
rfemur -55.7762 19.2141 -1.11564
rtibia 40.6384
rfoot -7.73776 2.62459
rtoes -25.4574
lfemur -35.2657 -25.3244 -18.9811
ltibia 47.3133
lfoot -14.635 -24.5956
ltoes 31.0631
844
root 11.4354 15.0169 5.61603 14.0353 34.2529 -1.8236
lowerback -8.69977 -1.56472 -5.11196
upperback -4.43032 -1.69238 4.31142
thorax 0.535402 -0.713595 7.25397
lowerneck -15.7561 -12.4982 -11.3722
upperneck 13.6158 -14.9645 3.44921
head 7.87448 -7.4299 1.08154
rclavicle -8.82355e-014 -2.14687e-014
rhumerus -24.7021 10.4863 -87.7171
rradius 29.9578
rwrist 18.2312
rhand -35.2206 -12.4423
rfingers 7.12502
rthumb -8.35763 -42.257
lclavicle -8.82355e-014 -2.14687e-014
lhumerus -47.6094 -7.56581 70.3716
lradius 99.0386
lwrist 47.3131
lhand -30.9311 -6.27179
lfingers 7.12502
lthumb -4.2166 23.6662
rfemur -55.1025 19.103 -0.818885
rtibia 40.7164
rfoot -6.46781 3.89292
rtoes -21.9719
lfemur -34.5387 -26.0252 -19.247
ltibia 47.1637
lfoot -14.9163 -24.5285
ltoes 30.936
845
root 11.4378 14.9998 5.70247 13.9467 34.8589 -1.42336
lowerback -8.78626 -1.70576 -5.29039
upperback -4.3379 -1.86323 4.09583
thorax 0.705812 -0.808603 7.10598
lowerneck -15.5618 -12.6348 -11.3567
upperneck 13.8839 -15.2343 3.67067
head 7.9684 -7.54103 1.11267
rclavicle 3.47128e-014 3.33958e-014
rhumerus -25.53 12.3614 -88.3929
rradius 30.5854
rwrist 17.5071
rhand -35.3407 -11.7993
rfingers 7.12502
rthumb -8.47355 -41.6093
lclavicle 3.47128e-014 3.33958e-014
lhumerus -48.4636 -7.37693 69.6445
lradius 98.3799
lwrist 47.5718
lhand -31.2828 -6.21579
lfingers 7.12502
lthumb -4.55618 23.7152
rfemur -54.4196 18.9385 -0.499754
rtibia 40.9538
rfoot -5.4872 4.89506
rtoes -18.0315
lfemur -33.8241 -26.8225 -19.55
ltibia 46.9792
lfoot -15.1883 -24.4096
ltoes 30.7473
846
root 11.4412 14.9836 5.78738 13.9244 35.4835 -0.980316
lowerback -8.92387 -1.8578 -5.46436
upperback -4.24751 -2.04503 3.86058
thorax 0.902833 -0.910013 6.93155
lowerneck -15.2507 -12.802 -11.3975
upperneck 14.0752 -15.5567 3.95047
head 8.03112 -7.67654 1.17103
rclavicle 6.88292e-015 1.43125e-014
rhumerus -26.3528 14.2537 -89.054
rradius 31.3421
rwrist 16.8312
rhand -35.393 -11.6208
rfingers 7.12502
rthumb -8.52404 -41.4288
lclavicle 6.88292e-015 1.43125e-014
lhumerus -49.2067 -7.26008 68.9486
lradius 97.6984
lwrist 47.91
lhand -31.5608 -6.05332
lfingers 7.12502
lthumb -4.82462 23.8717
rfemur -53.7597 18.7055 -0.166329
rtibia 41.3448
rfoot -5.02772 5.46296
rtoes -14.8391
lfemur -33.1554 -27.6991 -19.8723
ltibia 46.7659
lfoot -15.4751 -24.216
ltoes 30.4351
847
root 11.4454 14.968 5.871 13.9652 36.1115 -0.521077
lowerback -9.12035 -2.00925 -5.61663
upperback -4.16542 -2.22257 3.60765
thorax 1.12098 -1.00977 6.72408
lowerneck -14.9154 -12.9837 -11.4546
upperneck 14.2409 -15.9018 4.24775
head 8.08685 -7.82247 1.23581
rclavicle 4.02787e-014 7.95139e-015
rhumerus -27.1718 16.1084 -89.6926
rradius 32.183
rwrist 16.2713
rhand -35.4075 -11.8183
rfingers 7.12502
rthumb -8.538 -41.6256
lclavicle 4.02787e-014 7.95139e-015
lhumerus -49.8417 -7.22157 68.2885
lradius 97.0017
lwrist 48.3575
lhand -31.7507 -5.77825
lfingers 7.12502
lthumb -5.00797 24.1426
rfemur -53.1467 18.444 0.160171
rtibia 41.8571
rfoot -5.17951 5.56325
rtoes -13.418
lfemur -32.54 -28.6248 -20.1913
ltibia 46.5278
lfoot -15.803 -23.9364
ltoes 29.9523
848
root 11.45 14.9539 5.95331 14.0536 36.7151 -0.08023
lowerback -9.37238 -2.14803 -5.73031
upperback -4.10024 -2.38092 3.34393
thorax 1.3464 -1.09951 6.48296
lowerneck -14.5503 -13.1671 -11.5134
upperneck 14.3717 -16.2553 4.5607
head 8.1293 -7.97191 1.30725
rclavicle -4.60932e-015 -2.38542e-015
rhumerus -27.994 17.8942 -90.3132
rradius 33.0532
rwrist 15.8484
rhand -35.428 -12.2553
rfingers 7.12502
rthumb -8.55784 -42.0619
lclavicle -4.60932e-015 -2.38542e-015
lhumerus -50.3866 -7.25138 67.6665
lradius 96.3005
lwrist 48.9232
lhand -31.8483 -5.39778
lfingers 7.12502
lthumb -5.10228 24.5208
rfemur -52.6057 18.2235 0.45169
rtibia 42.4385
rfoot -5.80761 5.13968
rtoes -13.8688
lfemur -31.9763 -29.5669 -20.4794
ltibia 46.2684
lfoot -16.1884 -23.5644
ltoes 29.2417
849
root 11.4548 14.9424 6.0344 14.1459 37.2669 0.297903
lowerback -9.66085 -2.2631 -5.7888
upperback -4.04715 -2.50832 3.08639
thorax 1.57168 -1.17317 6.21876
lowerneck -14.1934 -13.3445 -11.5672
upperneck 14.4841 -16.6005 4.87363
head 8.16724 -8.1173 1.3792
rclavicle 3.67752e-015 1.23246e-014
rhumerus -28.805 19.597 -90.9002
rradius 33.9078
rwrist 15.5587
rhand -35.4921 -12.7629
rfingers 7.12502
rthumb -8.61971 -42.5669
lclavicle 3.67752e-015 1.23246e-014
lhumerus -50.8595 -7.32619 67.0911
lradius 95.6097
lwrist 49.5864
lhand -31.8381 -4.94568
lfingers 7.12502
lthumb -5.09243 24.9731
rfemur -52.1386 18.126 0.699548
rtibia 43.0256
rfoot -6.66769 4.29778
rtoes -15.5531
lfemur -31.4376 -30.4925 -20.7118
ltibia 45.9905
lfoot -16.6308 -23.0998
ltoes 28.2841
850
root 11.4598 14.9343 6.11427 14.196 37.736 0.566048
lowerback -9.95984 -2.34155 -5.76842
upperback -4.00723 -2.59215 2.84829
thorax 1.77931 -1.22383 5.93476
lowerneck -13.8769 -13.5042 -11.6076
upperneck 14.5927 -16.9178 5.1744
head 8.20747 -8.24914 1.44728
rclavicle -4.40308e-014 -3.37934e-014
rhumerus -29.6101 21.2188 -91.4567
rradius 34.7239
rwrist 15.3484
rhand -35.583 -13.2078
rfingers 7.12502
rthumb -8.70742 -43.0082
lclavicle -4.40308e-014 -3.37934e-014
lhumerus -51.2799 -7.41887 66.5673
lradius 94.9291
lwrist 50.2945
lhand -31.7171 -4.45772
lfingers 7.12502
lthumb -4.97555 25.4639
rfemur -51.7453 18.2095 0.919031
rtibia 43.5599
rfoot -7.507 3.23101
rtoes -17.5484
lfemur -30.8999 -31.3603 -20.8652
ltibia 45.7004
lfoot -17.1182 -22.5606
ltoes 27.1031
851
root 11.4652 14.9303 6.19225 14.1786 38.0999 0.683772
lowerback -10.2727 -2.36822 -5.64119
upperback -3.97701 -2.61613 2.63469
thorax 1.97195 -1.24359 5.62306
lowerneck -13.5852 -13.651 -11.6258
upperneck 14.6829 -17.2167 5.46519
head 8.24238 -8.37175 1.51101
rclavicle -2.45748e-014 -2.38542e-014
rhumerus -30.399 22.734 -91.9779
rradius 35.4912
rwrist 15.1766
rhand -35.736 -13.5352
rfingers 7.12502
rthumb -8.85507 -43.3294
lclavicle -2.45748e-014 -2.38542e-014
lhumerus -51.6485 -7.52491 66.1023
lradius 94.2593
lwrist 50.9906
lhand -31.5658 -3.95234
lfingers 7.12502
lthumb -4.82952 25.9726
rfemur -51.4336 18.4809 1.14302
rtibia 43.9969
rfoot -8.16318 2.16133
rtoes -19.1781
lfemur -30.37 -32.1342 -20.9107
ltibia 45.4092
lfoot -17.6319 -21.9642
ltoes 25.7463
852
root 11.4713 14.9311 6.26787 14.0705 38.346 0.616171
lowerback -10.5864 -2.34439 -5.3875
upperback -3.9657 -2.58675 2.46591
thorax 2.13477 -1.23493 5.29451
lowerneck -13.3385 -13.7797 -11.6368
upperneck 14.7829 -17.4828 5.73084
head 8.28332 -8.47963 1.56762
rclavicle -1.9338e-014 1.86858e-014
rhumerus -31.1801 24.1757 -92.4607
rradius 36.2
rwrist 15.0139
rhand -35.8567 -13.6959
rfingers 7.12502
rthumb -8.97157 -43.4851
lclavicle -1.9338e-014 1.86858e-014
lhumerus -52.0085 -7.60149 65.7104
lradius 93.5969
lwrist 51.6053
lhand -31.3046 -3.44668
lfingers 7.12502
lthumb -4.57728 26.4839
rfemur -51.2002 18.9174 1.41933
rtibia 44.3133
rfoot -8.61945 1.28294
rtoes -20.308
lfemur -29.8571 -32.7934 -20.8246
ltibia 45.1358
lfoot -18.1675 -21.3197
ltoes 24.2577
853
root 11.4787 14.9365 6.34074 13.8705 38.4664 0.355783
lowerback -10.9167 -2.25783 -4.99236
upperback -3.96843 -2.49 2.33115
thorax 2.27998 -1.19145 4.93121
lowerneck -13.0849 -13.9047 -11.6283
upperneck 14.8698 -17.7468 5.98759
head 8.31664 -8.5867 1.62001
rclavicle 5.89831e-014 1.23246e-014
rhumerus -31.9462 25.5051 -92.9063
rradius 36.8507
rwrist 14.8388
rhand -35.9336 -13.6815
rfingers 7.12502
rthumb -9.04576 -43.4675
lclavicle 5.89831e-014 1.23246e-014
lhumerus -52.3465 -7.66392 65.3888
lradius 92.9322
lwrist 52.1065
lhand -31.0198 -2.93297
lfingers 7.12502
lthumb -4.30227 27.0033
rfemur -51.0366 19.4793 1.77309
rtibia 44.5027
rfoot -8.87321 0.582961
rtoes -21.0991
lfemur -29.3743 -33.3232 -20.6028
ltibia 44.8995
lfoot -18.7268 -20.6372
ltoes 22.6949
